<svg role="img" viewBox="0 0 150 150" xmlns="http://www.w3.org/2000/svg" id="Appwrite--Streamline-Simple-Icons" height="150" width="150">
  <desc>
    Appwrite Streamline Icon: https://streamlinehq.com
  </desc>
  <title>Appwrite</title>
  <path d="M150 108.06875000000001v33.0625H65.98125A66.125 66.125 0 0 1 0 79.46875v-8.9375c0.3 -4.59375 1.0875 -9.14375 2.3375 -13.56875C10.1875 29.20625 35.70625 8.86875 65.98125 8.86875c30.275000000000002 0 55.793749999999996 20.3375 63.64375 48.09375h-35.93125a33.018750000000004 33.018750000000004 0 0 0 -27.712500000000002 -15.024999999999999 33.0125 33.0125 0 0 0 -27.712500000000002 15.024999999999999A32.6875 32.6875 0 0 0 32.91875 75a32.9375 32.9375 0 0 0 10.375 24.05 32.9375 32.9375 0 0 0 22.6875 9.01875H150Zm0 -42.0875v33.06875h-61.331250000000004A32.975 32.975 0 0 0 99.05000000000001 75c0 -3.125 -0.43750000000000006 -6.15 -1.2437500000000001 -9.01875H150Z" fill="#fd366e" stroke-width="6.25"></path>
</svg>